# xmcd
#
# Track frame offsets:
#	182
#	12170
#	24905
#	42612
#	53170
#	64610
#	90652
#	106747
#	119627
#	137000
#
# Disc length: 2085 seconds
#
# Revision: 0
# Processed by: cddbd v1.5.2PL0 Copyright (c) Steve Scherf et al.
# Submitted via: VUPlayer 2.49
#
DISCID=7e08230a
DTITLE=Blind Dog Taylor and Heat - After Hours Inferno
DYEAR=1998
DGENRE=Blues
TTITLE0=Let Me Come Home
TTITLE1=Strike Three
TTITLE2=Cool Evening
TTITLE3=Three Times Misunderstood
TTITLE4=The Buck Stops Here
TTITLE5=Souls Of The Sensitive Kind
TTITLE6=Hot, Black and Sweet
TTITLE7=At The End Of The Day
TTITLE8=Different Places, Different Direction
TTITLE9=My Only Regret
EXTD=
EXTT0=
EXTT1=
EXTT2=
EXTT3=
EXTT4=
EXTT5=
EXTT6=
EXTT7=
EXTT8=
EXTT9=
PLAYORDER=
